<svg width="1060" height="400" xmlns="http://www.w3.org/2000/svg">
 <g id="Layer_1">
  <title>Layer 1</title>
  <text font-style="normal" stroke="#000" xml:space="preserve" text-anchor="start" font-family="Noto Sans JP" font-size="60" id="svg_3" y="233.57141" x="505.28493" fill="#000000">MAO MAO SPACE</text>
  <path id="svg_5" d="m167.00878,106.50955l0,17.97031c-46.82646,2.52215 -83.71001,29.26266 -83.71001,61.87862c0,-5.87546 10.19276,-10.64748 22.74449,-10.64748c12.55907,0 22.75184,4.77202 22.75184,10.64748c0,-5.87546 10.18542,-10.64748 22.74449,-10.64748c5.97456,0 11.40531,1.11777 15.46919,2.88041l0,87.616c0,3.91936 -3.26286,7.09354 -7.2753,7.09354c-4.01979,0 -7.28265,-3.17418 -7.28265,-7.09354l0,-3.55394l-14.55794,0l0,3.55394c0,11.75808 9.78858,21.30212 21.84059,21.30212s21.83324,-9.54404 21.83324,-21.30212l0,-87.616c4.06388,-1.7698 9.50198,-2.88041 15.47654,-2.88041c12.54438,0 22.75184,4.77202 22.75184,10.64748c0,-5.87546 10.19276,-10.64748 22.73714,-10.64748c12.57377,0 22.76653,4.77202 22.76653,10.64748c0,-32.6088 -36.8909,-59.34931 -83.7247,-61.87862l0,-17.97031l-14.56529,0z" stroke="#000" fill="#000000"/>
 </g>
</svg>